<mxfile host="app.diagrams.net" agent="Mozilla/5.0 (Macintosh; Intel Mac OS X 10_15_7) AppleWebKit/537.36 (KHTML, like Gecko) Chrome/133.0.0.0 Safari/537.36" version="26.1.0">
  <diagram name="Page-1" id="5BR2QTHYvgDh_K3r4Eye">
    <mxGraphModel dx="954" dy="605" grid="1" gridSize="10" guides="1" tooltips="1" connect="1" arrows="1" fold="1" page="1" pageScale="1" pageWidth="850" pageHeight="1100" math="0" shadow="0">
      <root>
        <mxCell id="0" />
        <mxCell id="1" parent="0" />
        <mxCell id="McHdboMvMzvGFe4OpIcd-24" value="" style="rounded=0;whiteSpace=wrap;html=1;" vertex="1" parent="1">
          <mxGeometry x="80" y="45" width="680" height="60" as="geometry" />
        </mxCell>
        <mxCell id="McHdboMvMzvGFe4OpIcd-25" value="Internet" style="text;html=1;align=center;verticalAlign=middle;resizable=0;points=[];autosize=1;strokeColor=none;fillColor=none;" vertex="1" parent="1">
          <mxGeometry x="400" y="10" width="60" height="30" as="geometry" />
        </mxCell>
        <mxCell id="McHdboMvMzvGFe4OpIcd-29" value="AT&amp;amp;T" style="rounded=0;whiteSpace=wrap;html=1;align=center;fillColor=#1ba1e2;fontColor=#ffffff;strokeColor=#006EAF;" vertex="1" parent="1">
          <mxGeometry x="150" y="60" width="180" height="30" as="geometry" />
        </mxCell>
        <mxCell id="McHdboMvMzvGFe4OpIcd-30" value="Verizon" style="rounded=0;whiteSpace=wrap;html=1;align=center;fillColor=#e51400;fontColor=#ffffff;strokeColor=#B20000;" vertex="1" parent="1">
          <mxGeometry x="510" y="60" width="180" height="30" as="geometry" />
        </mxCell>
        <mxCell id="McHdboMvMzvGFe4OpIcd-31" value="&lt;span style=&quot;color: rgba(0, 0, 0, 0); font-family: monospace; font-size: 0px; text-align: start; text-wrap-mode: nowrap;&quot;&gt;%3CmxGraphModel%3E%3Croot%3E%3CmxCell%20id%3D%220%22%2F%3E%3CmxCell%20id%3D%221%22%20parent%3D%220%22%2F%3E%3CmxCell%20id%3D%222%22%20value%3D%22AT%26amp%3Bamp%3BT%22%20style%3D%22rounded%3D0%3BwhiteSpace%3Dwrap%3Bhtml%3D1%3Balign%3Dcenter%3B%22%20vertex%3D%221%22%20parent%3D%221%22%3E%3CmxGeometry%20x%3D%22130%22%20y%3D%2260%22%20width%3D%22180%22%20height%3D%2230%22%20as%3D%22geometry%22%2F%3E%3C%2FmxCell%3E%3C%2Froot%3E%3C%2FmxGraphModel%3E&lt;/span&gt;&lt;span style=&quot;color: rgba(0, 0, 0, 0); font-family: monospace; font-size: 0px; text-align: start; text-wrap-mode: nowrap;&quot;&gt;%3CmxGraphModel%3E%3Croot%3E%3CmxCell%20id%3D%220%22%2F%3E%3CmxCell%20id%3D%221%22%20parent%3D%220%22%2F%3E%3CmxCell%20id%3D%222%22%20value%3D%22AT%26amp%3Bamp%3BT%22%20style%3D%22rounded%3D0%3BwhiteSpace%3Dwrap%3Bhtml%3D1%3Balign%3Dcenter%3B%22%20vertex%3D%221%22%20parent%3D%221%22%3E%3CmxGeometry%20x%3D%22130%22%20y%3D%2260%22%20width%3D%22180%22%20height%3D%2230%22%20as%3D%22geometry%22%2F%3E%3C%2FmxCell%3E%3C%2Froot%3E%3C%2FmxGraphModel%3E&lt;/span&gt;" style="whiteSpace=wrap;html=1;aspect=fixed;movable=1;resizable=1;rotatable=1;deletable=1;editable=1;locked=0;connectable=1;" vertex="1" parent="1">
          <mxGeometry x="40" y="160" width="360" height="360" as="geometry" />
        </mxCell>
        <mxCell id="McHdboMvMzvGFe4OpIcd-34" value="&lt;span style=&quot;color: rgba(0, 0, 0, 0); font-family: monospace; font-size: 0px; text-align: start; text-wrap-mode: nowrap;&quot;&gt;%3CmxGraphModel%3E%3Croot%3E%3CmxCell%20id%3D%220%22%2F%3E%3CmxCell%20id%3D%221%22%20parent%3D%220%22%2F%3E%3CmxCell%20id%3D%222%22%20value%3D%22AT%26amp%3Bamp%3BT%22%20style%3D%22rounded%3D0%3BwhiteSpace%3Dwrap%3Bhtml%3D1%3Balign%3Dcenter%3B%22%20vertex%3D%221%22%20parent%3D%221%22%3E%3CmxGeometry%20x%3D%22130%22%20y%3D%2260%22%20width%3D%22180%22%20height%3D%2230%22%20as%3D%22geometry%22%2F%3E%3C%2FmxCell%3E%3C%2Froot%3E%3C%2FmxGraphModel%3E&lt;/span&gt;&lt;span style=&quot;color: rgba(0, 0, 0, 0); font-family: monospace; font-size: 0px; text-align: start; text-wrap-mode: nowrap;&quot;&gt;%3CmxGraphModel%3E%3Croot%3E%3CmxCell%20id%3D%220%22%2F%3E%3CmxCell%20id%3D%221%22%20parent%3D%220%22%2F%3E%3CmxCell%20id%3D%222%22%20value%3D%22AT%26amp%3Bamp%3BT%22%20style%3D%22rounded%3D0%3BwhiteSpace%3Dwrap%3Bhtml%3D1%3Balign%3Dcenter%3B%22%20vertex%3D%221%22%20parent%3D%221%22%3E%3CmxGeometry%20x%3D%22130%22%20y%3D%2260%22%20width%3D%22180%22%20height%3D%2230%22%20as%3D%22geometry%22%2F%3E%3C%2FmxCell%3E%3C%2Froot%3E%3C%2FmxGraphModel%3E&lt;/span&gt;" style="whiteSpace=wrap;html=1;aspect=fixed;movable=1;resizable=1;rotatable=1;deletable=1;editable=1;locked=0;connectable=1;" vertex="1" parent="1">
          <mxGeometry x="530" y="160" width="360" height="360" as="geometry" />
        </mxCell>
        <mxCell id="McHdboMvMzvGFe4OpIcd-35" value="RB" style="rounded=0;whiteSpace=wrap;html=1;" vertex="1" parent="1">
          <mxGeometry x="250" y="200" width="120" height="30" as="geometry" />
        </mxCell>
        <mxCell id="McHdboMvMzvGFe4OpIcd-60" value="" style="edgeStyle=none;rounded=0;orthogonalLoop=1;jettySize=auto;html=1;entryX=0.5;entryY=0;entryDx=0;entryDy=0;exitX=0.139;exitY=0.933;exitDx=0;exitDy=0;exitPerimeter=0;" edge="1" parent="1" source="McHdboMvMzvGFe4OpIcd-29" target="McHdboMvMzvGFe4OpIcd-36">
          <mxGeometry relative="1" as="geometry">
            <Array as="points">
              <mxPoint x="175" y="130" />
              <mxPoint x="120" y="130" />
            </Array>
          </mxGeometry>
        </mxCell>
        <mxCell id="McHdboMvMzvGFe4OpIcd-61" value="eBGP" style="edgeLabel;html=1;align=center;verticalAlign=middle;resizable=0;points=[];" vertex="1" connectable="0" parent="McHdboMvMzvGFe4OpIcd-60">
          <mxGeometry x="-0.3976" relative="1" as="geometry">
            <mxPoint x="-47" y="20" as="offset" />
          </mxGeometry>
        </mxCell>
        <mxCell id="McHdboMvMzvGFe4OpIcd-73" value="" style="edgeStyle=none;rounded=0;orthogonalLoop=1;jettySize=auto;html=1;" edge="1" parent="1" source="McHdboMvMzvGFe4OpIcd-36" target="McHdboMvMzvGFe4OpIcd-37">
          <mxGeometry relative="1" as="geometry">
            <Array as="points">
              <mxPoint x="120" y="250" />
            </Array>
          </mxGeometry>
        </mxCell>
        <mxCell id="McHdboMvMzvGFe4OpIcd-36" value="RA" style="rounded=0;whiteSpace=wrap;html=1;" vertex="1" parent="1">
          <mxGeometry x="60" y="200" width="120" height="30" as="geometry" />
        </mxCell>
        <mxCell id="McHdboMvMzvGFe4OpIcd-88" value="" style="edgeStyle=none;rounded=0;orthogonalLoop=1;jettySize=auto;html=1;entryX=0.417;entryY=-0.1;entryDx=0;entryDy=0;entryPerimeter=0;exitX=0.417;exitY=1.033;exitDx=0;exitDy=0;exitPerimeter=0;" edge="1" parent="1" source="McHdboMvMzvGFe4OpIcd-37" target="McHdboMvMzvGFe4OpIcd-85">
          <mxGeometry relative="1" as="geometry">
            <Array as="points">
              <mxPoint x="110" y="320" />
            </Array>
          </mxGeometry>
        </mxCell>
        <mxCell id="McHdboMvMzvGFe4OpIcd-37" value="Core Switch A" style="rounded=0;whiteSpace=wrap;html=1;" vertex="1" parent="1">
          <mxGeometry x="60" y="260" width="120" height="30" as="geometry" />
        </mxCell>
        <mxCell id="McHdboMvMzvGFe4OpIcd-78" value="" style="edgeStyle=none;rounded=0;orthogonalLoop=1;jettySize=auto;html=1;entryX=0.833;entryY=0.033;entryDx=0;entryDy=0;entryPerimeter=0;" edge="1" parent="1" source="McHdboMvMzvGFe4OpIcd-38" target="McHdboMvMzvGFe4OpIcd-39">
          <mxGeometry relative="1" as="geometry">
            <Array as="points">
              <mxPoint x="310" y="310" />
            </Array>
          </mxGeometry>
        </mxCell>
        <mxCell id="McHdboMvMzvGFe4OpIcd-38" value="Core Switch B" style="rounded=0;whiteSpace=wrap;html=1;" vertex="1" parent="1">
          <mxGeometry x="250" y="260" width="120" height="30" as="geometry" />
        </mxCell>
        <mxCell id="McHdboMvMzvGFe4OpIcd-39" value="Access Switches" style="rounded=0;whiteSpace=wrap;html=1;" vertex="1" parent="1">
          <mxGeometry x="210" y="340" width="120" height="30" as="geometry" />
        </mxCell>
        <mxCell id="McHdboMvMzvGFe4OpIcd-41" value="Vmare Cluster (Windows)" style="rounded=0;whiteSpace=wrap;html=1;" vertex="1" parent="1">
          <mxGeometry x="210" y="400" width="120" height="30" as="geometry" />
        </mxCell>
        <mxCell id="McHdboMvMzvGFe4OpIcd-42" value="Storage Area Network" style="rounded=0;whiteSpace=wrap;html=1;" vertex="1" parent="1">
          <mxGeometry x="210" y="470" width="120" height="30" as="geometry" />
        </mxCell>
        <mxCell id="McHdboMvMzvGFe4OpIcd-43" value="RB" style="rounded=0;whiteSpace=wrap;html=1;" vertex="1" parent="1">
          <mxGeometry x="760" y="190" width="120" height="30" as="geometry" />
        </mxCell>
        <mxCell id="McHdboMvMzvGFe4OpIcd-116" value="" style="edgeStyle=none;rounded=0;orthogonalLoop=1;jettySize=auto;html=1;entryX=0.5;entryY=0;entryDx=0;entryDy=0;" edge="1" parent="1" source="McHdboMvMzvGFe4OpIcd-44" target="McHdboMvMzvGFe4OpIcd-45">
          <mxGeometry relative="1" as="geometry">
            <mxPoint x="600" y="310" as="targetPoint" />
          </mxGeometry>
        </mxCell>
        <mxCell id="McHdboMvMzvGFe4OpIcd-44" value="RA" style="rounded=0;whiteSpace=wrap;html=1;" vertex="1" parent="1">
          <mxGeometry x="540" y="190" width="120" height="30" as="geometry" />
        </mxCell>
        <mxCell id="McHdboMvMzvGFe4OpIcd-117" value="" style="edgeStyle=none;rounded=0;orthogonalLoop=1;jettySize=auto;html=1;entryX=0.342;entryY=-0.1;entryDx=0;entryDy=0;entryPerimeter=0;" edge="1" parent="1" source="McHdboMvMzvGFe4OpIcd-45" target="McHdboMvMzvGFe4OpIcd-86">
          <mxGeometry relative="1" as="geometry" />
        </mxCell>
        <mxCell id="McHdboMvMzvGFe4OpIcd-45" value="Core Switch A" style="rounded=0;whiteSpace=wrap;html=1;" vertex="1" parent="1">
          <mxGeometry x="540" y="250" width="120" height="30" as="geometry" />
        </mxCell>
        <mxCell id="McHdboMvMzvGFe4OpIcd-123" value="" style="edgeStyle=none;rounded=0;orthogonalLoop=1;jettySize=auto;html=1;exitX=0.5;exitY=1;exitDx=0;exitDy=0;" edge="1" parent="1" source="McHdboMvMzvGFe4OpIcd-46">
          <mxGeometry relative="1" as="geometry">
            <mxPoint x="820" y="327" as="targetPoint" />
            <Array as="points">
              <mxPoint x="820" y="290" />
            </Array>
          </mxGeometry>
        </mxCell>
        <mxCell id="McHdboMvMzvGFe4OpIcd-46" value="Core Switch B" style="rounded=0;whiteSpace=wrap;html=1;" vertex="1" parent="1">
          <mxGeometry x="760" y="240" width="120" height="30" as="geometry" />
        </mxCell>
        <mxCell id="McHdboMvMzvGFe4OpIcd-127" value="" style="edgeStyle=none;rounded=0;orthogonalLoop=1;jettySize=auto;html=1;entryX=0.667;entryY=0;entryDx=0;entryDy=0;entryPerimeter=0;" edge="1" parent="1" source="McHdboMvMzvGFe4OpIcd-48" target="McHdboMvMzvGFe4OpIcd-50">
          <mxGeometry relative="1" as="geometry" />
        </mxCell>
        <mxCell id="McHdboMvMzvGFe4OpIcd-48" value="VMware Cluster (Windows)" style="rounded=0;whiteSpace=wrap;html=1;" vertex="1" parent="1">
          <mxGeometry x="740" y="390" width="120" height="30" as="geometry" />
        </mxCell>
        <mxCell id="McHdboMvMzvGFe4OpIcd-119" value="" style="edgeStyle=none;rounded=0;orthogonalLoop=1;jettySize=auto;html=1;entryX=0.5;entryY=0;entryDx=0;entryDy=0;" edge="1" parent="1" source="McHdboMvMzvGFe4OpIcd-49" target="McHdboMvMzvGFe4OpIcd-48">
          <mxGeometry relative="1" as="geometry" />
        </mxCell>
        <mxCell id="McHdboMvMzvGFe4OpIcd-49" value="Access Switches" style="rounded=0;whiteSpace=wrap;html=1;" vertex="1" parent="1">
          <mxGeometry x="740" y="330" width="120" height="30" as="geometry" />
        </mxCell>
        <mxCell id="McHdboMvMzvGFe4OpIcd-50" value="Storage Area Network" style="rounded=0;whiteSpace=wrap;html=1;" vertex="1" parent="1">
          <mxGeometry x="660" y="470" width="210" height="30" as="geometry" />
        </mxCell>
        <mxCell id="McHdboMvMzvGFe4OpIcd-51" value="&lt;span style=&quot;color: rgba(0, 0, 0, 0); font-family: monospace; font-size: 0px; text-align: start; text-wrap-mode: nowrap;&quot;&gt;%3CmxGraphModel%3E%3Croot%3E%3CmxCell%20id%3D%220%22%2F%3E%3CmxCell%20id%3D%221%22%20parent%3D%220%22%2F%3E%3CmxCell%20id%3D%222%22%20value%3D%22AT%26amp%3Bamp%3BT%22%20style%3D%22rounded%3D0%3BwhiteSpace%3Dwrap%3Bhtml%3D1%3Balign%3Dcenter%3B%22%20vertex%3D%221%22%20parent%3D%221%22%3E%3CmxGeometry%20x%3D%22130%22%20y%3D%2260%22%20width%3D%22180%22%20height%3D%2230%22%20as%3D%22geometry%22%2F%3E%3C%2FmxCell%3E%3C%2Froot%3E%3C%2FmxGraphModel%3E&lt;/span&gt;&lt;span style=&quot;color: rgba(0, 0, 0, 0); font-family: monospace; font-size: 0px; text-align: start; text-wrap-mode: nowrap;&quot;&gt;%3CmxGraphModel%3E%3Croot%3E%3CmxCell%20id%3D%220%22%2F%3E%3CmxCell%20id%3D%221%22%20parent%3D%220%22%2F%3E%3CmxCell%20id%3D%222%22%20value%3D%22AT%26amp%3Bamp%3BT%22%20style%3D%22rounded%3D0%3BwhiteSpace%3Dwrap%3Bhtml%3D1%3Balign%3Dcenter%3B%22%20vertex%3D%221%22%20parent%3D%221%22%3E%3CmxGeometry%20x%3D%22130%22%20y%3D%2260%22%20width%3D%22180%22%20height%3D%2230%22%20as%3D%22geometry%22%2F%3E%3C%2FmxCell%3E%3C%2Froot%3E%3C%2FmxGraphModel%3E&lt;/span&gt;" style="whiteSpace=wrap;html=1;aspect=fixed;movable=1;resizable=1;rotatable=1;deletable=1;editable=1;locked=0;connectable=1;" vertex="1" parent="1">
          <mxGeometry x="250" y="680" width="360" height="360" as="geometry" />
        </mxCell>
        <mxCell id="McHdboMvMzvGFe4OpIcd-100" value="" style="edgeStyle=none;rounded=0;orthogonalLoop=1;jettySize=auto;html=1;" edge="1" parent="1" source="McHdboMvMzvGFe4OpIcd-52" target="McHdboMvMzvGFe4OpIcd-55">
          <mxGeometry relative="1" as="geometry">
            <Array as="points">
              <mxPoint x="330" y="955" />
            </Array>
          </mxGeometry>
        </mxCell>
        <mxCell id="McHdboMvMzvGFe4OpIcd-52" value="Google Cloud Vmware Engine" style="rounded=0;whiteSpace=wrap;html=1;" vertex="1" parent="1">
          <mxGeometry x="270" y="845" width="120" height="30" as="geometry" />
        </mxCell>
        <mxCell id="McHdboMvMzvGFe4OpIcd-99" value="" style="edgeStyle=none;rounded=0;orthogonalLoop=1;jettySize=auto;html=1;" edge="1" parent="1" source="McHdboMvMzvGFe4OpIcd-53" target="McHdboMvMzvGFe4OpIcd-52">
          <mxGeometry relative="1" as="geometry" />
        </mxCell>
        <mxCell id="McHdboMvMzvGFe4OpIcd-53" value="Google VPC Network" style="rounded=0;whiteSpace=wrap;html=1;" vertex="1" parent="1">
          <mxGeometry x="270" y="780" width="120" height="30" as="geometry" />
        </mxCell>
        <mxCell id="McHdboMvMzvGFe4OpIcd-97" value="" style="edgeStyle=none;rounded=0;orthogonalLoop=1;jettySize=auto;html=1;" edge="1" parent="1" source="McHdboMvMzvGFe4OpIcd-54" target="McHdboMvMzvGFe4OpIcd-53">
          <mxGeometry relative="1" as="geometry" />
        </mxCell>
        <mxCell id="McHdboMvMzvGFe4OpIcd-54" value="Cloud Interconnect" style="rounded=0;whiteSpace=wrap;html=1;" vertex="1" parent="1">
          <mxGeometry x="270" y="720" width="120" height="30" as="geometry" />
        </mxCell>
        <mxCell id="McHdboMvMzvGFe4OpIcd-55" value="Google Cloud Storage" style="rounded=0;whiteSpace=wrap;html=1;" vertex="1" parent="1">
          <mxGeometry x="350" y="940" width="180" height="30" as="geometry" />
        </mxCell>
        <mxCell id="McHdboMvMzvGFe4OpIcd-62" value="" style="edgeStyle=none;rounded=0;orthogonalLoop=1;jettySize=auto;html=1;entryX=0.917;entryY=0.117;entryDx=0;entryDy=0;exitX=0;exitY=0.75;exitDx=0;exitDy=0;entryPerimeter=0;" edge="1" parent="1" source="McHdboMvMzvGFe4OpIcd-30" target="McHdboMvMzvGFe4OpIcd-35">
          <mxGeometry relative="1" as="geometry">
            <mxPoint x="280" y="200" as="sourcePoint" />
            <mxPoint x="367" y="90" as="targetPoint" />
            <Array as="points">
              <mxPoint x="410" y="83" />
              <mxPoint x="360" y="83" />
              <mxPoint x="360" y="130" />
              <mxPoint x="360" y="170" />
              <mxPoint x="360" y="190" />
            </Array>
          </mxGeometry>
        </mxCell>
        <mxCell id="McHdboMvMzvGFe4OpIcd-63" value="eBGP" style="edgeLabel;html=1;align=center;verticalAlign=middle;resizable=0;points=[];" vertex="1" connectable="0" parent="McHdboMvMzvGFe4OpIcd-62">
          <mxGeometry x="-0.3976" relative="1" as="geometry">
            <mxPoint x="-69" y="67" as="offset" />
          </mxGeometry>
        </mxCell>
        <mxCell id="McHdboMvMzvGFe4OpIcd-64" value="DC1- Primary" style="text;html=1;align=center;verticalAlign=middle;resizable=0;points=[];autosize=1;strokeColor=none;fillColor=none;fontStyle=1" vertex="1" parent="1">
          <mxGeometry x="160" y="160" width="100" height="30" as="geometry" />
        </mxCell>
        <mxCell id="McHdboMvMzvGFe4OpIcd-67" value="" style="edgeStyle=none;rounded=0;orthogonalLoop=1;jettySize=auto;html=1;entryX=0.5;entryY=0;entryDx=0;entryDy=0;exitX=0.828;exitY=0.983;exitDx=0;exitDy=0;exitPerimeter=0;" edge="1" parent="1" source="McHdboMvMzvGFe4OpIcd-29" target="McHdboMvMzvGFe4OpIcd-44">
          <mxGeometry relative="1" as="geometry">
            <mxPoint x="780" y="93" as="sourcePoint" />
            <mxPoint x="570" y="207" as="targetPoint" />
            <Array as="points">
              <mxPoint x="300" y="120" />
              <mxPoint x="330" y="120" />
              <mxPoint x="600" y="120" />
              <mxPoint x="600" y="150" />
            </Array>
          </mxGeometry>
        </mxCell>
        <mxCell id="McHdboMvMzvGFe4OpIcd-68" value="eBGP" style="edgeLabel;html=1;align=center;verticalAlign=middle;resizable=0;points=[];" vertex="1" connectable="0" parent="McHdboMvMzvGFe4OpIcd-67">
          <mxGeometry x="-0.3976" relative="1" as="geometry">
            <mxPoint x="210" y="30" as="offset" />
          </mxGeometry>
        </mxCell>
        <mxCell id="McHdboMvMzvGFe4OpIcd-69" value="" style="edgeStyle=none;rounded=0;orthogonalLoop=1;jettySize=auto;html=1;exitX=1;exitY=0.5;exitDx=0;exitDy=0;" edge="1" parent="1" source="McHdboMvMzvGFe4OpIcd-30">
          <mxGeometry relative="1" as="geometry">
            <mxPoint x="850" y="90" as="sourcePoint" />
            <mxPoint x="840" y="190" as="targetPoint" />
            <Array as="points">
              <mxPoint x="840" y="75" />
              <mxPoint x="840" y="150" />
              <mxPoint x="840" y="180" />
            </Array>
          </mxGeometry>
        </mxCell>
        <mxCell id="McHdboMvMzvGFe4OpIcd-70" value="eBGP" style="edgeLabel;html=1;align=center;verticalAlign=middle;resizable=0;points=[];" vertex="1" connectable="0" parent="McHdboMvMzvGFe4OpIcd-69">
          <mxGeometry x="-0.3976" relative="1" as="geometry">
            <mxPoint x="59" y="75" as="offset" />
          </mxGeometry>
        </mxCell>
        <mxCell id="McHdboMvMzvGFe4OpIcd-132" style="edgeStyle=none;rounded=0;orthogonalLoop=1;jettySize=auto;html=1;" edge="1" parent="1" source="McHdboMvMzvGFe4OpIcd-72" target="McHdboMvMzvGFe4OpIcd-34">
          <mxGeometry relative="1" as="geometry" />
        </mxCell>
        <mxCell id="McHdboMvMzvGFe4OpIcd-72" value="&lt;b&gt;DC2 - Failover Data Center&lt;/b&gt;" style="text;html=1;align=center;verticalAlign=middle;resizable=0;points=[];autosize=1;strokeColor=none;fillColor=none;" vertex="1" parent="1">
          <mxGeometry x="615" y="160" width="170" height="30" as="geometry" />
        </mxCell>
        <mxCell id="McHdboMvMzvGFe4OpIcd-74" value="" style="edgeStyle=none;rounded=0;orthogonalLoop=1;jettySize=auto;html=1;" edge="1" parent="1">
          <mxGeometry relative="1" as="geometry">
            <mxPoint x="300" y="230" as="sourcePoint" />
            <mxPoint x="300" y="260" as="targetPoint" />
            <Array as="points">
              <mxPoint x="300" y="250" />
            </Array>
          </mxGeometry>
        </mxCell>
        <mxCell id="McHdboMvMzvGFe4OpIcd-79" style="edgeStyle=none;rounded=0;orthogonalLoop=1;jettySize=auto;html=1;exitX=0;exitY=0.25;exitDx=0;exitDy=0;" edge="1" parent="1" source="McHdboMvMzvGFe4OpIcd-39" target="McHdboMvMzvGFe4OpIcd-39">
          <mxGeometry relative="1" as="geometry" />
        </mxCell>
        <mxCell id="McHdboMvMzvGFe4OpIcd-80" value="" style="endArrow=classic;html=1;rounded=0;entryX=0;entryY=0.5;entryDx=0;entryDy=0;" edge="1" parent="1" target="McHdboMvMzvGFe4OpIcd-39">
          <mxGeometry width="50" height="50" relative="1" as="geometry">
            <mxPoint x="170" y="290" as="sourcePoint" />
            <mxPoint x="230" y="340" as="targetPoint" />
            <Array as="points">
              <mxPoint x="170" y="355" />
            </Array>
          </mxGeometry>
        </mxCell>
        <mxCell id="McHdboMvMzvGFe4OpIcd-81" value="Assuming Redundancy on Power, Generator, Transformers, HVAC&amp;nbsp;" style="text;html=1;align=center;verticalAlign=middle;resizable=0;points=[];autosize=1;strokeColor=none;fillColor=none;rotation=90;" vertex="1" parent="1">
          <mxGeometry x="-165" y="325" width="380" height="30" as="geometry" />
        </mxCell>
        <mxCell id="McHdboMvMzvGFe4OpIcd-82" value="Assuming Redundancy on Power, Generator, Transformers, HVAC&amp;nbsp;" style="text;html=1;align=center;verticalAlign=middle;resizable=0;points=[];autosize=1;strokeColor=none;fillColor=none;rotation=90;" vertex="1" parent="1">
          <mxGeometry x="720" y="325" width="380" height="30" as="geometry" />
        </mxCell>
        <mxCell id="McHdboMvMzvGFe4OpIcd-83" value="" style="endArrow=classic;html=1;rounded=0;entryX=0.567;entryY=0;entryDx=0;entryDy=0;entryPerimeter=0;" edge="1" parent="1" target="McHdboMvMzvGFe4OpIcd-41">
          <mxGeometry width="50" height="50" relative="1" as="geometry">
            <mxPoint x="278" y="370" as="sourcePoint" />
            <mxPoint x="295" y="350" as="targetPoint" />
          </mxGeometry>
        </mxCell>
        <mxCell id="McHdboMvMzvGFe4OpIcd-84" value="" style="endArrow=classic;html=1;rounded=0;entryX=0.5;entryY=0;entryDx=0;entryDy=0;exitX=0.5;exitY=1;exitDx=0;exitDy=0;" edge="1" parent="1" source="McHdboMvMzvGFe4OpIcd-41" target="McHdboMvMzvGFe4OpIcd-42">
          <mxGeometry width="50" height="50" relative="1" as="geometry">
            <mxPoint x="280" y="470" as="sourcePoint" />
            <mxPoint x="288" y="430" as="targetPoint" />
            <Array as="points">
              <mxPoint x="270" y="450" />
            </Array>
          </mxGeometry>
        </mxCell>
        <mxCell id="McHdboMvMzvGFe4OpIcd-85" value="Google Cloud Interconnect" style="rounded=0;whiteSpace=wrap;html=1;" vertex="1" parent="1">
          <mxGeometry x="60" y="400" width="120" height="30" as="geometry" />
        </mxCell>
        <mxCell id="McHdboMvMzvGFe4OpIcd-86" value="Google Cloud Interconnect" style="rounded=0;whiteSpace=wrap;html=1;" vertex="1" parent="1">
          <mxGeometry x="560" y="390" width="120" height="30" as="geometry" />
        </mxCell>
        <mxCell id="McHdboMvMzvGFe4OpIcd-87" value="" style="endArrow=classic;html=1;rounded=0;exitX=0.117;exitY=1.1;exitDx=0;exitDy=0;exitPerimeter=0;entryX=0.583;entryY=-0.133;entryDx=0;entryDy=0;entryPerimeter=0;" edge="1" parent="1" source="McHdboMvMzvGFe4OpIcd-38" target="McHdboMvMzvGFe4OpIcd-85">
          <mxGeometry width="50" height="50" relative="1" as="geometry">
            <mxPoint x="165" y="355" as="sourcePoint" />
            <mxPoint x="130" y="390" as="targetPoint" />
            <Array as="points">
              <mxPoint x="264" y="310" />
              <mxPoint x="130" y="310" />
            </Array>
          </mxGeometry>
        </mxCell>
        <mxCell id="McHdboMvMzvGFe4OpIcd-89" value="&lt;b&gt;Google Cloud DR&lt;/b&gt;" style="text;html=1;align=center;verticalAlign=middle;resizable=0;points=[];autosize=1;strokeColor=none;fillColor=none;" vertex="1" parent="1">
          <mxGeometry x="365" y="680" width="120" height="30" as="geometry" />
        </mxCell>
        <mxCell id="McHdboMvMzvGFe4OpIcd-90" style="edgeStyle=none;rounded=0;orthogonalLoop=1;jettySize=auto;html=1;exitX=0.75;exitY=0;exitDx=0;exitDy=0;" edge="1" parent="1" source="McHdboMvMzvGFe4OpIcd-53" target="McHdboMvMzvGFe4OpIcd-53">
          <mxGeometry relative="1" as="geometry" />
        </mxCell>
        <mxCell id="McHdboMvMzvGFe4OpIcd-91" value="" style="image;points=[];aspect=fixed;html=1;align=center;shadow=0;dashed=0;image=img/lib/allied_telesis/storage/Datacenter_Server_Storage_Unit_Large.svg;" vertex="1" parent="1">
          <mxGeometry x="200" y="180" width="29.09" height="30" as="geometry" />
        </mxCell>
        <mxCell id="McHdboMvMzvGFe4OpIcd-92" value="" style="image;points=[];aspect=fixed;html=1;align=center;shadow=0;dashed=0;image=img/lib/allied_telesis/storage/Datacenter_Server_Storage_Unit_Large.svg;" vertex="1" parent="1">
          <mxGeometry x="690.9100000000001" y="180" width="29.09" height="30" as="geometry" />
        </mxCell>
        <mxCell id="McHdboMvMzvGFe4OpIcd-107" value="10Gbps Dedicated Connection" style="endArrow=classic;startArrow=classic;html=1;rounded=0;exitX=0;exitY=0.5;exitDx=0;exitDy=0;fontStyle=1;labelBorderColor=default;textShadow=1;fillColor=#60a917;strokeColor=#2D7600;" edge="1" parent="1" source="McHdboMvMzvGFe4OpIcd-54">
          <mxGeometry x="0.0345" width="50" height="50" relative="1" as="geometry">
            <mxPoint x="302.06999999999994" y="722.01" as="sourcePoint" />
            <mxPoint x="127.03" y="430" as="targetPoint" />
            <Array as="points">
              <mxPoint x="127" y="735" />
            </Array>
            <mxPoint as="offset" />
          </mxGeometry>
        </mxCell>
        <mxCell id="McHdboMvMzvGFe4OpIcd-108" value="10Gbps Dedicated Connection" style="endArrow=classic;startArrow=classic;html=1;rounded=0;fontStyle=1;labelBorderColor=default;textShadow=1;entryX=0.25;entryY=1;entryDx=0;entryDy=0;fillColor=#60a917;strokeColor=#2D7600;" edge="1" parent="1" target="McHdboMvMzvGFe4OpIcd-86">
          <mxGeometry x="0.1373" y="-10" width="50" height="50" relative="1" as="geometry">
            <mxPoint x="390" y="740" as="sourcePoint" />
            <mxPoint x="590" y="430" as="targetPoint" />
            <mxPoint as="offset" />
            <Array as="points">
              <mxPoint x="590" y="740" />
            </Array>
          </mxGeometry>
        </mxCell>
        <mxCell id="McHdboMvMzvGFe4OpIcd-109" value="Assuming Redundancy for HA and Multi AZ*" style="text;html=1;align=center;verticalAlign=middle;resizable=0;points=[];autosize=1;strokeColor=none;fillColor=none;rotation=90;" vertex="1" parent="1">
          <mxGeometry x="100.00000000000001" y="870" width="260" height="30" as="geometry" />
        </mxCell>
        <mxCell id="McHdboMvMzvGFe4OpIcd-110" value="" style="endArrow=classic;html=1;rounded=0;exitX=1;exitY=0.5;exitDx=0;exitDy=0;" edge="1" parent="1">
          <mxGeometry width="50" height="50" relative="1" as="geometry">
            <mxPoint x="330" y="490" as="sourcePoint" />
            <mxPoint x="480" y="935" as="targetPoint" />
            <Array as="points">
              <mxPoint x="476.96" y="491.01" />
            </Array>
          </mxGeometry>
        </mxCell>
        <mxCell id="McHdboMvMzvGFe4OpIcd-111" value="Sync Replication" style="edgeLabel;html=1;align=center;verticalAlign=middle;resizable=0;points=[];fontStyle=1;labelBorderColor=default;textShadow=1;" vertex="1" connectable="0" parent="McHdboMvMzvGFe4OpIcd-110">
          <mxGeometry x="-0.0695" relative="1" as="geometry">
            <mxPoint x="7" y="286" as="offset" />
          </mxGeometry>
        </mxCell>
        <mxCell id="McHdboMvMzvGFe4OpIcd-112" value="" style="endArrow=classic;startArrow=classic;html=1;rounded=0;exitX=1;exitY=0.75;exitDx=0;exitDy=0;" edge="1" parent="1">
          <mxGeometry width="50" height="50" relative="1" as="geometry">
            <mxPoint x="180" y="276.25" as="sourcePoint" />
            <mxPoint x="540" y="270" as="targetPoint" />
            <Array as="points">
              <mxPoint x="210" y="276" />
              <mxPoint x="210" y="300" />
              <mxPoint x="360" y="300" />
              <mxPoint x="500" y="300" />
              <mxPoint x="500" y="270" />
            </Array>
          </mxGeometry>
        </mxCell>
        <mxCell id="McHdboMvMzvGFe4OpIcd-113" value="" style="endArrow=classic;startArrow=classic;html=1;rounded=0;exitX=1;exitY=0.5;exitDx=0;exitDy=0;" edge="1" parent="1" source="McHdboMvMzvGFe4OpIcd-38">
          <mxGeometry width="50" height="50" relative="1" as="geometry">
            <mxPoint x="380" y="280" as="sourcePoint" />
            <mxPoint x="760" y="250" as="targetPoint" />
            <Array as="points">
              <mxPoint x="410" y="275" />
              <mxPoint x="410" y="240" />
              <mxPoint x="580" y="240" />
              <mxPoint x="650" y="240" />
              <mxPoint x="730" y="240" />
              <mxPoint x="730" y="250" />
            </Array>
          </mxGeometry>
        </mxCell>
        <mxCell id="McHdboMvMzvGFe4OpIcd-114" value="DC Interconnect 10Gps" style="edgeLabel;html=1;align=center;verticalAlign=middle;resizable=0;points=[];fontSize=10;fontStyle=1;textShadow=1;labelBorderColor=default;" vertex="1" connectable="0" parent="McHdboMvMzvGFe4OpIcd-113">
          <mxGeometry x="-0.4713" relative="1" as="geometry">
            <mxPoint x="20" as="offset" />
          </mxGeometry>
        </mxCell>
        <mxCell id="McHdboMvMzvGFe4OpIcd-115" value="DC Interconnect 10Gps" style="edgeLabel;html=1;align=center;verticalAlign=middle;resizable=0;points=[];fontSize=10;fontStyle=1;textShadow=1;labelBorderColor=default;" vertex="1" connectable="0" parent="1">
          <mxGeometry x="460" y="300" as="geometry" />
        </mxCell>
        <mxCell id="McHdboMvMzvGFe4OpIcd-121" value="" style="endArrow=classic;html=1;rounded=0;exitX=0.842;exitY=1.1;exitDx=0;exitDy=0;entryX=0;entryY=0.5;entryDx=0;entryDy=0;exitPerimeter=0;" edge="1" parent="1" source="McHdboMvMzvGFe4OpIcd-45" target="McHdboMvMzvGFe4OpIcd-49">
          <mxGeometry width="50" height="50" relative="1" as="geometry">
            <mxPoint x="670" y="330" as="sourcePoint" />
            <mxPoint x="720" y="280" as="targetPoint" />
            <Array as="points">
              <mxPoint x="642" y="343" />
            </Array>
          </mxGeometry>
        </mxCell>
        <mxCell id="McHdboMvMzvGFe4OpIcd-122" style="edgeStyle=none;rounded=0;orthogonalLoop=1;jettySize=auto;html=1;exitX=0.25;exitY=1;exitDx=0;exitDy=0;entryX=0.817;entryY=0.067;entryDx=0;entryDy=0;entryPerimeter=0;" edge="1" parent="1" source="McHdboMvMzvGFe4OpIcd-46" target="McHdboMvMzvGFe4OpIcd-86">
          <mxGeometry relative="1" as="geometry">
            <Array as="points">
              <mxPoint x="790" y="310" />
              <mxPoint x="658" y="310" />
            </Array>
          </mxGeometry>
        </mxCell>
        <mxCell id="McHdboMvMzvGFe4OpIcd-125" style="edgeStyle=none;rounded=0;orthogonalLoop=1;jettySize=auto;html=1;entryX=0.778;entryY=0.833;entryDx=0;entryDy=0;entryPerimeter=0;" edge="1" parent="1">
          <mxGeometry relative="1" as="geometry">
            <mxPoint x="710" y="470" as="sourcePoint" />
            <mxPoint x="329.99999999999994" y="479.8800000000001" as="targetPoint" />
            <Array as="points">
              <mxPoint x="709.92" y="460.01" />
              <mxPoint x="419.92" y="460" />
              <mxPoint x="369.92" y="460" />
              <mxPoint x="369.92" y="480" />
            </Array>
          </mxGeometry>
        </mxCell>
        <mxCell id="McHdboMvMzvGFe4OpIcd-126" style="edgeStyle=none;rounded=0;orthogonalLoop=1;jettySize=auto;html=1;exitX=0.25;exitY=0;exitDx=0;exitDy=0;" edge="1" parent="1" source="McHdboMvMzvGFe4OpIcd-50" target="McHdboMvMzvGFe4OpIcd-50">
          <mxGeometry relative="1" as="geometry" />
        </mxCell>
        <mxCell id="McHdboMvMzvGFe4OpIcd-128" value="&lt;b&gt;Storage Replication&lt;/b&gt;" style="text;html=1;align=center;verticalAlign=middle;resizable=0;points=[];autosize=1;strokeColor=none;fillColor=none;labelBackgroundColor=none;labelBorderColor=default;textShadow=1;" vertex="1" parent="1">
          <mxGeometry x="690" y="430" width="140" height="30" as="geometry" />
        </mxCell>
        <mxCell id="McHdboMvMzvGFe4OpIcd-131" value="" style="edgeStyle=none;rounded=0;orthogonalLoop=1;jettySize=auto;html=1;exitX=0.583;exitY=1;exitDx=0;exitDy=0;exitPerimeter=0;" edge="1" parent="1" source="McHdboMvMzvGFe4OpIcd-43">
          <mxGeometry relative="1" as="geometry">
            <mxPoint x="830" y="280" as="sourcePoint" />
            <mxPoint x="830" y="239" as="targetPoint" />
            <Array as="points" />
          </mxGeometry>
        </mxCell>
        <mxCell id="McHdboMvMzvGFe4OpIcd-137" value="" style="endArrow=classic;html=1;rounded=0;entryX=1;entryY=0.5;entryDx=0;entryDy=0;exitX=0.462;exitY=1;exitDx=0;exitDy=0;exitPerimeter=0;" edge="1" parent="1" source="McHdboMvMzvGFe4OpIcd-50">
          <mxGeometry width="50" height="50" relative="1" as="geometry">
            <mxPoint x="755.97" y="500" as="sourcePoint" />
            <mxPoint x="530" y="958" as="targetPoint" />
            <Array as="points">
              <mxPoint x="760" y="958.5" />
            </Array>
          </mxGeometry>
        </mxCell>
        <mxCell id="McHdboMvMzvGFe4OpIcd-138" value="Sync Replication" style="edgeLabel;html=1;align=center;verticalAlign=middle;resizable=0;points=[];fontStyle=1;labelBorderColor=default;textShadow=1;" vertex="1" connectable="0" parent="1">
          <mxGeometry x="679.9966457031663" y="940.0035282068352" as="geometry" />
        </mxCell>
        <mxCell id="McHdboMvMzvGFe4OpIcd-139" value="" style="outlineConnect=0;dashed=0;verticalLabelPosition=bottom;verticalAlign=top;align=center;html=1;shape=mxgraph.aws3.internet_3;fillColor=#0050ef;fontColor=#ffffff;strokeColor=#001DBC;" vertex="1" parent="1">
          <mxGeometry x="460" y="10" width="39.5" height="25" as="geometry" />
        </mxCell>
        <mxCell id="McHdboMvMzvGFe4OpIcd-141" value="" style="sketch=0;aspect=fixed;pointerEvents=1;shadow=0;dashed=0;html=1;strokeColor=none;labelPosition=center;verticalLabelPosition=bottom;verticalAlign=top;align=center;fillColor=#00188D;shape=mxgraph.mscae.enterprise.router" vertex="1" parent="1">
          <mxGeometry x="140" y="205" width="25.64" height="20" as="geometry" />
        </mxCell>
        <mxCell id="McHdboMvMzvGFe4OpIcd-142" value="" style="sketch=0;aspect=fixed;pointerEvents=1;shadow=0;dashed=0;html=1;strokeColor=none;labelPosition=center;verticalLabelPosition=bottom;verticalAlign=top;align=center;fillColor=#00188D;shape=mxgraph.mscae.enterprise.router" vertex="1" parent="1">
          <mxGeometry x="334.36" y="205" width="25.64" height="20" as="geometry" />
        </mxCell>
        <mxCell id="McHdboMvMzvGFe4OpIcd-143" value="" style="sketch=0;aspect=fixed;pointerEvents=1;shadow=0;dashed=0;html=1;strokeColor=none;labelPosition=center;verticalLabelPosition=bottom;verticalAlign=top;align=center;fillColor=#00188D;shape=mxgraph.mscae.enterprise.router" vertex="1" parent="1">
          <mxGeometry x="620" y="195" width="25.64" height="20" as="geometry" />
        </mxCell>
        <mxCell id="McHdboMvMzvGFe4OpIcd-144" value="" style="sketch=0;aspect=fixed;pointerEvents=1;shadow=0;dashed=0;html=1;strokeColor=none;labelPosition=center;verticalLabelPosition=bottom;verticalAlign=top;align=center;fillColor=#00188D;shape=mxgraph.mscae.enterprise.router" vertex="1" parent="1">
          <mxGeometry x="844.36" y="195" width="25.64" height="20" as="geometry" />
        </mxCell>
        <mxCell id="McHdboMvMzvGFe4OpIcd-149" value="" style="image;html=1;image=img/lib/clip_art/networking/Switch_128x128.png" vertex="1" parent="1">
          <mxGeometry x="260" y="330" width="30" height="20" as="geometry" />
        </mxCell>
        <mxCell id="McHdboMvMzvGFe4OpIcd-150" value="" style="image;html=1;image=img/lib/clip_art/networking/Switch_128x128.png" vertex="1" parent="1">
          <mxGeometry x="770" y="320" width="30" height="20" as="geometry" />
        </mxCell>
        <mxCell id="McHdboMvMzvGFe4OpIcd-152" value="" style="verticalLabelPosition=bottom;sketch=0;html=1;fillColor=#6ABD46;strokeColor=#ffffff;verticalAlign=top;align=center;points=[[0.085,0.085,0],[0.915,0.085,0],[0.915,0.915,0],[0.085,0.915,0],[0.25,0,0],[0.5,0,0],[0.75,0,0],[1,0.25,0],[1,0.5,0],[1,0.75,0],[0.75,1,0],[0.5,1,0],[0.25,1,0],[0,0.75,0],[0,0.5,0],[0,0.25,0]];pointerEvents=1;shape=mxgraph.cisco_safe.compositeIcon;bgIcon=mxgraph.cisco_safe.architecture.generic_appliance;resIcon=mxgraph.cisco_safe.architecture.l3_switch;" vertex="1" parent="1">
          <mxGeometry x="142.82" y="250" width="20" height="20" as="geometry" />
        </mxCell>
        <mxCell id="McHdboMvMzvGFe4OpIcd-153" value="" style="verticalLabelPosition=bottom;sketch=0;html=1;fillColor=#6ABD46;strokeColor=#ffffff;verticalAlign=top;align=center;points=[[0.085,0.085,0],[0.915,0.085,0],[0.915,0.915,0],[0.085,0.915,0],[0.25,0,0],[0.5,0,0],[0.75,0,0],[1,0.25,0],[1,0.5,0],[1,0.75,0],[0.75,1,0],[0.5,1,0],[0.25,1,0],[0,0.75,0],[0,0.5,0],[0,0.25,0]];pointerEvents=1;shape=mxgraph.cisco_safe.compositeIcon;bgIcon=mxgraph.cisco_safe.architecture.generic_appliance;resIcon=mxgraph.cisco_safe.architecture.l3_switch;" vertex="1" parent="1">
          <mxGeometry x="337.18" y="250" width="20" height="20" as="geometry" />
        </mxCell>
        <mxCell id="McHdboMvMzvGFe4OpIcd-155" value="" style="verticalLabelPosition=bottom;sketch=0;html=1;fillColor=#6ABD46;strokeColor=#ffffff;verticalAlign=top;align=center;points=[[0.085,0.085,0],[0.915,0.085,0],[0.915,0.915,0],[0.085,0.915,0],[0.25,0,0],[0.5,0,0],[0.75,0,0],[1,0.25,0],[1,0.5,0],[1,0.75,0],[0.75,1,0],[0.5,1,0],[0.25,1,0],[0,0.75,0],[0,0.5,0],[0,0.25,0]];pointerEvents=1;shape=mxgraph.cisco_safe.compositeIcon;bgIcon=mxgraph.cisco_safe.architecture.generic_appliance;resIcon=mxgraph.cisco_safe.architecture.l3_switch;" vertex="1" parent="1">
          <mxGeometry x="622.8199999999999" y="240" width="20" height="20" as="geometry" />
        </mxCell>
        <mxCell id="McHdboMvMzvGFe4OpIcd-156" value="" style="verticalLabelPosition=bottom;sketch=0;html=1;fillColor=#6ABD46;strokeColor=#ffffff;verticalAlign=top;align=center;points=[[0.085,0.085,0],[0.915,0.085,0],[0.915,0.915,0],[0.085,0.915,0],[0.25,0,0],[0.5,0,0],[0.75,0,0],[1,0.25,0],[1,0.5,0],[1,0.75,0],[0.75,1,0],[0.5,1,0],[0.25,1,0],[0,0.75,0],[0,0.5,0],[0,0.25,0]];pointerEvents=1;shape=mxgraph.cisco_safe.compositeIcon;bgIcon=mxgraph.cisco_safe.architecture.generic_appliance;resIcon=mxgraph.cisco_safe.architecture.l3_switch;" vertex="1" parent="1">
          <mxGeometry x="847.1800000000001" y="225" width="20" height="20" as="geometry" />
        </mxCell>
        <mxCell id="McHdboMvMzvGFe4OpIcd-160" value="" style="pointerEvents=1;shadow=0;dashed=0;html=1;strokeColor=none;fillColor=#4495D1;labelPosition=center;verticalLabelPosition=bottom;verticalAlign=top;align=center;outlineConnect=0;shape=mxgraph.veeam.vmware_host;" vertex="1" parent="1">
          <mxGeometry x="317.18" y="383" width="32.82" height="44" as="geometry" />
        </mxCell>
        <mxCell id="McHdboMvMzvGFe4OpIcd-161" value="" style="pointerEvents=1;shadow=0;dashed=0;html=1;strokeColor=none;fillColor=#4495D1;labelPosition=center;verticalLabelPosition=bottom;verticalAlign=top;align=center;outlineConnect=0;shape=mxgraph.veeam.vmware_host;" vertex="1" parent="1">
          <mxGeometry x="847.1800000000001" y="370" width="32.82" height="44" as="geometry" />
        </mxCell>
        <mxCell id="McHdboMvMzvGFe4OpIcd-162" value="" style="image;aspect=fixed;html=1;points=[];align=center;fontSize=12;image=img/lib/azure2/other/Elastic_SAN.svg;" vertex="1" parent="1">
          <mxGeometry x="190" y="480" width="30" height="30" as="geometry" />
        </mxCell>
        <mxCell id="McHdboMvMzvGFe4OpIcd-164" value="" style="image;aspect=fixed;html=1;points=[];align=center;fontSize=12;image=img/lib/azure2/other/Elastic_SAN.svg;" vertex="1" parent="1">
          <mxGeometry x="642.8199999999999" y="470" width="30" height="30" as="geometry" />
        </mxCell>
        <mxCell id="McHdboMvMzvGFe4OpIcd-165" value="" style="editableCssRules=.*;html=1;shape=image;verticalLabelPosition=bottom;labelBackgroundColor=#ffffff;verticalAlign=top;aspect=fixed;imageAspect=0;image=data:image/svg+xml,PHN2ZyB4bWxucz0iaHR0cDovL3d3dy53My5vcmcvMjAwMC9zdmciIHhtbG5zOnY9Imh0dHBzOi8vdmVjdGEuaW8vbmFubyIgd2lkdGg9IjIwIiBoZWlnaHQ9IjEzLjUxOTk5OTUwNDA4OTM1NSIgdmlld0JveD0iMCAtMi4wNjA1NzM0NTA4OTU1MTA2ZS0xNSAyMCAxMy41MTk5OTk1MDQwODkzNTUiPiYjeGE7CTxzdHlsZSB0eXBlPSJ0ZXh0L2NzcyI+JiN4YTsJLnN0MHtmaWxsOiM0Mjg1ZjQ7fSYjeGE7CS5zdDF7ZmlsbDojNjY5ZGY2O30mI3hhOwkuc3Qye2ZpbGw6I2FlY2JmYTt9JiN4YTsJPC9zdHlsZT4mI3hhOwk8cGF0aCBjbGFzcz0ic3QwIiBkPSJNOS4xOSAxLjYyaDEuNjJ2MTAuMjdIOS4xOXoiLz4mI3hhOwk8cGF0aCBjbGFzcz0ic3QxIiBkPSJNMCA1Ljk1aDIuN3YxLjYySDB6Ii8+JiN4YTsJPHJlY3QgY2xhc3M9InN0MCIgeD0iMi40MyIgeT0iMy41MiIgd2lkdGg9IjQuODYiIGhlaWdodD0iNi40OSIgcng9Ii4yNCIvPiYjeGE7CTxnIGNsYXNzPSJzdDEiPiYjeGE7CQk8cGF0aCBkPSJNOS4xOSAxLjYyaDEuNjJ2MTAuMjdIOS4xOXptOC4xMSA0LjMzSDIwdjEuNjJoLTIuN3oiLz4mI3hhOwkJPHBhdGggZD0iTTQuNTkgMTEuOXYxLjMzYS4yOS4yOSAwIDAgMCAuMjkuMjloMTAuMjRhLjI5LjI5IDAgMCAwIC4yOS0uMjloMFYxMS45ek0xNS4xMiAwSDQuODhhLjI5LjI5IDAgMCAwLS4yOS4yOWgwdjEuMzNoMTAuODJWLjI5YS4yOS4yOSAwIDAgMC0uMjktLjI5eiIvPiYjeGE7CTwvZz4mI3hhOwk8cmVjdCBjbGFzcz0ic3QwIiB4PSIxMi43IiB5PSIzLjUyIiB3aWR0aD0iNC44NiIgaGVpZ2h0PSI2LjQ5IiByeD0iLjI0Ii8+JiN4YTs8L3N2Zz4=;" vertex="1" parent="1">
          <mxGeometry x="51.43000000000001" y="420" width="28.57" height="20" as="geometry" />
        </mxCell>
        <mxCell id="McHdboMvMzvGFe4OpIcd-166" value="" style="editableCssRules=.*;html=1;shape=image;verticalLabelPosition=bottom;labelBackgroundColor=#ffffff;verticalAlign=top;aspect=fixed;imageAspect=0;image=data:image/svg+xml,PHN2ZyB4bWxucz0iaHR0cDovL3d3dy53My5vcmcvMjAwMC9zdmciIHhtbG5zOnY9Imh0dHBzOi8vdmVjdGEuaW8vbmFubyIgd2lkdGg9IjIwIiBoZWlnaHQ9IjEzLjUxOTk5OTUwNDA4OTM1NSIgdmlld0JveD0iMCAtMi4wNjA1NzM0NTA4OTU1MTA2ZS0xNSAyMCAxMy41MTk5OTk1MDQwODkzNTUiPiYjeGE7CTxzdHlsZSB0eXBlPSJ0ZXh0L2NzcyI+JiN4YTsJLnN0MHtmaWxsOiM0Mjg1ZjQ7fSYjeGE7CS5zdDF7ZmlsbDojNjY5ZGY2O30mI3hhOwkuc3Qye2ZpbGw6I2FlY2JmYTt9JiN4YTsJPC9zdHlsZT4mI3hhOwk8cGF0aCBjbGFzcz0ic3QwIiBkPSJNOS4xOSAxLjYyaDEuNjJ2MTAuMjdIOS4xOXoiLz4mI3hhOwk8cGF0aCBjbGFzcz0ic3QxIiBkPSJNMCA1Ljk1aDIuN3YxLjYySDB6Ii8+JiN4YTsJPHJlY3QgY2xhc3M9InN0MCIgeD0iMi40MyIgeT0iMy41MiIgd2lkdGg9IjQuODYiIGhlaWdodD0iNi40OSIgcng9Ii4yNCIvPiYjeGE7CTxnIGNsYXNzPSJzdDEiPiYjeGE7CQk8cGF0aCBkPSJNOS4xOSAxLjYyaDEuNjJ2MTAuMjdIOS4xOXptOC4xMSA0LjMzSDIwdjEuNjJoLTIuN3oiLz4mI3hhOwkJPHBhdGggZD0iTTQuNTkgMTEuOXYxLjMzYS4yOS4yOSAwIDAgMCAuMjkuMjloMTAuMjRhLjI5LjI5IDAgMCAwIC4yOS0uMjloMFYxMS45ek0xNS4xMiAwSDQuODhhLjI5LjI5IDAgMCAwLS4yOS4yOWgwdjEuMzNoMTAuODJWLjI5YS4yOS4yOSAwIDAgMC0uMjktLjI5eiIvPiYjeGE7CTwvZz4mI3hhOwk8cmVjdCBjbGFzcz0ic3QwIiB4PSIxMi43IiB5PSIzLjUyIiB3aWR0aD0iNC44NiIgaGVpZ2h0PSI2LjQ5IiByeD0iLjI0Ii8+JiN4YTs8L3N2Zz4=;" vertex="1" parent="1">
          <mxGeometry x="550" y="414" width="28.57" height="20" as="geometry" />
        </mxCell>
        <mxCell id="McHdboMvMzvGFe4OpIcd-168" value="" style="html=1;strokeWidth=1;shadow=0;dashed=0;shape=mxgraph.ios7.misc.vpn;fillColor=#007AFF;strokeColor=none;buttonText=;strokeColor2=#222222;fontColor=#222222;fontSize=8;verticalLabelPosition=bottom;verticalAlign=top;align=center;sketch=0;" vertex="1" parent="1">
          <mxGeometry x="451.25" y="340" width="17.5" height="15" as="geometry" />
        </mxCell>
        <mxCell id="McHdboMvMzvGFe4OpIcd-169" style="edgeStyle=none;rounded=0;orthogonalLoop=1;jettySize=auto;html=1;entryX=1.008;entryY=0.519;entryDx=0;entryDy=0;entryPerimeter=0;fillColor=#0050ef;strokeColor=#001DBC;" edge="1" parent="1" source="McHdboMvMzvGFe4OpIcd-168" target="McHdboMvMzvGFe4OpIcd-31">
          <mxGeometry relative="1" as="geometry">
            <mxPoint x="401" y="350" as="targetPoint" />
          </mxGeometry>
        </mxCell>
        <mxCell id="McHdboMvMzvGFe4OpIcd-170" style="edgeStyle=none;rounded=0;orthogonalLoop=1;jettySize=auto;html=1;entryX=-0.011;entryY=0.519;entryDx=0;entryDy=0;entryPerimeter=0;fillColor=#0050ef;strokeColor=#001DBC;" edge="1" parent="1" source="McHdboMvMzvGFe4OpIcd-168" target="McHdboMvMzvGFe4OpIcd-34">
          <mxGeometry relative="1" as="geometry" />
        </mxCell>
        <mxCell id="McHdboMvMzvGFe4OpIcd-171" style="edgeStyle=none;rounded=0;orthogonalLoop=1;jettySize=auto;html=1;entryX=0.8;entryY=0;entryDx=0;entryDy=0;entryPerimeter=0;fillColor=#0050ef;strokeColor=#001DBC;" edge="1" parent="1" source="McHdboMvMzvGFe4OpIcd-168" target="McHdboMvMzvGFe4OpIcd-89">
          <mxGeometry relative="1" as="geometry" />
        </mxCell>
        <mxCell id="McHdboMvMzvGFe4OpIcd-172" value="Hot HA across on-premises &amp;amp; Google Cloud" style="text;html=1;align=center;verticalAlign=middle;resizable=0;points=[];autosize=1;strokeColor=none;fillColor=none;fontStyle=1;fontSize=9;labelBackgroundColor=default;labelBorderColor=default;textShadow=1;" vertex="1" parent="1">
          <mxGeometry x="247.18" y="660" width="200" height="20" as="geometry" />
        </mxCell>
      </root>
    </mxGraphModel>
  </diagram>
</mxfile>
